<?xml version="1.0" encoding="UTF-8"?>
<svg version="1.1" xmlns="http://www.w3.org/2000/svg" width="512" height="512">
<path d="M0 0 C0.60199219 0.45503906 1.20398438 0.91007812 1.82421875 1.37890625 C15.06551543 11.71884655 24.27685165 28.61544647 27 45 C27.52406367 51.93590318 27.35055832 58.9096075 27.29296875 65.859375 C27.28736316 67.86004313 27.28309762 69.86071542 27.28010559 71.86138916 C27.26873259 77.08923001 27.23933154 82.3168149 27.20599365 87.54455566 C27.17512884 92.8942519 27.1615654 98.2439901 27.14648438 103.59375 C27.11445365 114.06261154 27.06335012 124.53128436 27 135 C27.58358276 134.99111755 28.16716553 134.98223511 28.76843262 134.9730835 C34.86830809 134.88426475 40.96799844 134.82412307 47.06835938 134.78027344 C49.34187284 134.76021683 51.6153351 134.73296462 53.88867188 134.69824219 C57.16549349 134.64946288 60.44163025 134.62697103 63.71875 134.609375 C65.23172668 134.57840729 65.23172668 134.57840729 66.77526855 134.54681396 C72.9807182 134.54486183 77.88383819 135.28934049 83 139 C87.96242447 145.10759935 88.15091783 150.15911621 88.16113281 157.78833008 C88.16609772 158.67499863 88.17106262 159.56166718 88.17617798 160.47520447 C88.19077523 163.40665465 88.19759755 166.33805071 88.203125 169.26953125 C88.20887844 171.30970765 88.21463615 173.34988404 88.22039795 175.39006042 C88.23090099 179.66800183 88.23674823 183.94592447 88.24023438 188.22387695 C88.24571769 193.69815947 88.26974531 199.1721931 88.29820633 204.64639759 C88.31685495 208.86122862 88.3220395 213.07599996 88.32357025 217.29086876 C88.32659226 219.30863493 88.3346055 221.32640016 88.34775543 223.34412575 C88.36486234 226.17077048 88.3629243 228.99681044 88.35644531 231.82348633 C88.3656601 232.65230316 88.37487488 233.48112 88.3843689 234.33505249 C88.33686308 240.97104777 87.00676683 245.6235656 82.625 250.8125 C77.28908851 255.25909291 72.48883778 255.28835981 65.82853699 255.25396729 C64.9019814 255.25708727 63.97542581 255.26020725 63.02079278 255.26342177 C59.91378099 255.27140293 56.80696445 255.26507718 53.69995117 255.25878906 C51.47217189 255.26149922 49.24439351 255.26506029 47.01661682 255.26940918 C40.95762118 255.27854249 34.89869351 255.27498236 28.83969665 255.26865101 C22.48210324 255.26358398 16.12451563 255.26828553 9.766922 255.27142334 C-1.61611975 255.27529941 -12.99912713 255.26907452 -24.382162 255.25890467 C-34.65395999 255.25001011 -44.92571264 255.25148658 -55.19750977 255.26074219 C-67.15422953 255.27151117 -79.11092182 255.2753914 -91.06764811 255.26951766 C-97.38519067 255.26642117 -103.7027022 255.26592293 -110.02024269 255.27259064 C-115.98170957 255.27844184 -121.94309257 255.27422772 -127.90455055 255.26280212 C-130.07303733 255.26019424 -132.24153138 255.26085274 -134.41001511 255.26532745 C-154.02524371 255.30201577 -173.68144144 254.42977635 -193 250.8125 C-194.15878662 250.59891846 -195.31757324 250.38533691 -196.51147461 250.1652832 C-215.08104384 246.59123976 -232.89814752 241.08300265 -250 233 C-250.72767578 232.65743164 -251.45535156 232.31486328 -252.20507812 231.96191406 C-275.6301462 220.73086042 -297.70963312 203.498012 -307.24609375 178.57421875 C-309.57798964 170.61194212 -310.29355338 163.28355928 -310.2746582 154.98535156 C-310.27976913 153.81498352 -310.28488007 152.64461548 -310.29014587 151.43878174 C-310.30398756 147.58934338 -310.30308888 143.74008521 -310.30078125 139.890625 C-310.30309441 137.88038037 -310.30659855 135.87014009 -310.310188 133.85989738 C-310.32125113 127.54362435 -310.32173935 121.22741081 -310.31567383 114.91113281 C-310.30964313 108.42810989 -310.32192928 101.94530449 -310.3432439 95.46231866 C-310.36095044 89.86791118 -310.3668469 84.27357236 -310.36360615 78.67913795 C-310.3618067 75.35043319 -310.36563821 72.02200623 -310.37832069 68.69330597 C-310.39075528 64.97277936 -310.38385058 61.25274619 -310.37231445 57.53222656 C-310.37995819 56.45231445 -310.38760193 55.37240234 -310.39547729 54.25976562 C-310.2530875 33.32263868 -301.10666349 16.93271971 -286.52832031 2.54785156 C-221.20515288 -59.51986622 -96.5839012 -56.28451454 0 0 Z M-281 15 C-281.93392578 15.87978516 -281.93392578 15.87978516 -282.88671875 16.77734375 C-292.70460437 26.85998134 -297.3125 40.15733612 -297.3125 53.93994141 C-297.02799838 70.11450491 -288.46749286 82.22856617 -277.26513672 93.27392578 C-251.44938084 117.62246052 -213.21861076 128.23499011 -179 133 C-178.20787109 133.11714355 -177.41574219 133.23428711 -176.59960938 133.35498047 C-123.89075072 140.87683413 -60.42488135 134.01333373 -16.34082031 102.15600586 C-13.79620766 100.20693254 -11.38966414 98.13530213 -9 96 C-8.26668457 95.34499512 -8.26668457 95.34499512 -7.51855469 94.67675781 C3.89725842 84.3197595 13.12344055 71.38944562 14.15625 55.61328125 C14.65959141 40.91151758 9.6107971 28.66686682 -0.25 17.875 C-2.13571359 15.88470115 -4.058984 13.93624525 -6 12 C-7.19109375 10.79150391 -7.19109375 10.79150391 -8.40625 9.55859375 C-32.55800971 -13.58684263 -69.01796274 -22.90794936 -101 -28 C-101.78246094 -28.12600586 -102.56492187 -28.25201172 -103.37109375 -28.38183594 C-162.18162754 -37.4731891 -236.85969736 -28.18591772 -281 15 Z M-298 90 C-298.0466247 98.77194546 -298.0820207 107.54384735 -298.10362434 116.31589031 C-298.11400021 120.39040739 -298.12804411 124.46483883 -298.15087891 128.53930664 C-298.17283096 132.48155861 -298.18461503 136.42372893 -298.18975449 140.36603737 C-298.19341057 141.85970149 -298.20054809 143.35336185 -298.21146011 144.84699059 C-298.2963791 156.96800449 -298.29456977 169.27289698 -292.4375 180.1875 C-292.08888916 180.85966553 -291.74027832 181.53183105 -291.38110352 182.22436523 C-288.09513435 188.29957882 -283.93489051 193.18008006 -279 198 C-278.32195312 198.71285156 -277.64390625 199.42570312 -276.9453125 200.16015625 C-274.5600807 202.673589 -274.5600807 202.673589 -272 205 C-271.34 205 -270.68 205 -270 205 C-269.99413376 204.36772995 -269.98826752 203.7354599 -269.98222351 203.08403015 C-269.91838013 196.51413708 -269.83398419 189.944738 -269.73754883 183.37524414 C-269.70425674 180.92218531 -269.6762383 178.46904909 -269.65356445 176.01586914 C-269.62009771 172.49331622 -269.56778485 168.97147535 -269.51171875 165.44921875 C-269.50532883 164.34913986 -269.4989389 163.24906097 -269.49235535 162.11564636 C-269.47256119 161.09481461 -269.45276703 160.07398285 -269.43237305 159.0222168 C-269.42126999 158.12286911 -269.41016693 157.22352142 -269.39872742 156.29692078 C-269 154 -269 154 -267.69953918 152.1743927 C-266 151 -266 151 -262.375 151.1875 C-261.26125 151.455625 -260.1475 151.72375 -259 152 C-257.65551267 154.68897467 -257.83804236 156.81591649 -257.79467773 159.82666016 C-257.77473251 161.04777496 -257.75478729 162.26888977 -257.73423767 163.52700806 C-257.71725344 164.86435823 -257.70037463 166.20170975 -257.68359375 167.5390625 C-257.66302397 168.90384553 -257.64202749 170.26862218 -257.62062073 171.63339233 C-257.56540241 175.22707973 -257.51599213 178.8208246 -257.46777344 182.41461182 C-257.41755663 186.08114746 -257.36187151 189.74759956 -257.30664062 193.4140625 C-257.199062 200.60930426 -257.09761643 207.80461546 -257 215 C-248.14184349 219.5416113 -239.35751942 223.93665565 -230 227.375 C-228.70642578 227.86806641 -228.70642578 227.86806641 -227.38671875 228.37109375 C-222.24400436 230.29863617 -217.4022341 231.64944147 -212 233 C-211.67 220.79 -211.34 208.58 -211 196 C-207.7 196 -204.4 196 -201 196 C-200.505 215.8 -200.505 215.8 -200 236 C-194.864375 236.9590625 -194.864375 236.9590625 -189.625 237.9375 C-188.56748535 238.13722412 -187.5099707 238.33694824 -186.42041016 238.54272461 C-177.95961973 240.10096074 -169.79451395 241.05550426 -161.18212891 241.02319336 C-159.44112411 241.01817055 -159.44112411 241.01817055 -157.66494751 241.01304626 C-156.78551483 241.008741 -155.90608215 241.00443573 -155 241 C-154.98786972 239.93551132 -154.98786972 239.93551132 -154.97549438 238.84951782 C-154.89762497 232.16885663 -154.81035789 225.4883925 -154.71247292 218.80799294 C-154.66247962 215.37333864 -154.61615022 211.93871555 -154.578125 208.50390625 C-154.5342726 204.55711312 -154.47460852 200.61063634 -154.4140625 196.6640625 C-154.40251129 195.42757965 -154.39096008 194.1910968 -154.37905884 192.91714478 C-154.35918915 191.77611298 -154.33931946 190.63508118 -154.31884766 189.45947266 C-154.30552399 188.451315 -154.29220032 187.44315735 -154.2784729 186.40444946 C-154 184 -154 184 -152 182 C-148.5 181.75 -148.5 181.75 -145 182 C-142.36209266 184.63790734 -142.72898064 185.86849082 -142.68115234 189.55126953 C-142.65134781 191.29284836 -142.65134781 191.29284836 -142.62094116 193.0696106 C-142.60361435 194.95714554 -142.60361435 194.95714554 -142.5859375 196.8828125 C-142.55688828 198.80962357 -142.55688828 198.80962357 -142.5272522 200.77536011 C-142.47586059 204.19147535 -142.43627286 207.60763007 -142.39910889 211.02392578 C-142.35911303 214.50953958 -142.30810822 217.99499086 -142.2578125 221.48046875 C-142.15992652 228.3202514 -142.08047175 235.15990128 -142 242 C-127.48 242 -112.96 242 -98 242 C-97.79027618 232.68158145 -97.79027618 232.68158145 -97.61206055 223.36254883 C-97.57894775 222.19747803 -97.54583496 221.03240723 -97.51171875 219.83203125 C-97.48553467 218.64327393 -97.45935059 217.4545166 -97.43237305 216.22973633 C-96.96274994 212.7217498 -96.18716613 210.76830811 -94 208 C-90.9375 207.5625 -90.9375 207.5625 -88 208 C-85.20793868 210.79206132 -85.64840225 213.45230086 -85.5859375 217.1953125 C-85.53252197 219.13688232 -85.53252197 219.13688232 -85.47802734 221.11767578 C-85.44402832 222.77009277 -85.4100293 224.42250977 -85.375 226.125 C-85.25125 231.36375 -85.1275 236.6025 -85 242 C-70.15 242 -55.3 242 -40 242 C-39.95101563 237.83632813 -39.90203125 233.67265625 -39.8515625 229.3828125 C-39.80704095 226.0676842 -39.76054441 222.75259673 -39.71270752 219.43751526 C-39.66271581 215.93543379 -39.61622383 212.4333851 -39.578125 208.93115234 C-39.53427456 204.91484293 -39.47461041 200.89890513 -39.4140625 196.8828125 C-39.40251129 195.62445587 -39.39096008 194.36609924 -39.37905884 193.0696106 C-39.35918915 191.90855804 -39.33931946 190.74750549 -39.31884766 189.55126953 C-39.30552399 188.52534698 -39.29220032 187.49942444 -39.2784729 186.44241333 C-39 184 -39 184 -37 182 C-33.5 181.6875 -33.5 181.6875 -30 182 C-27.7456402 185.3815397 -27.73371273 186.60468871 -27.68115234 190.57299805 C-27.65134781 192.28443245 -27.65134781 192.28443245 -27.62094116 194.03044128 C-27.60361435 195.87742363 -27.60361435 195.87742363 -27.5859375 197.76171875 C-27.55688828 199.65311333 -27.55688828 199.65311333 -27.5272522 201.5827179 C-27.47756263 204.93147581 -27.43630565 208.28012319 -27.39910889 211.62902832 C-27.3590692 215.04770815 -27.30808346 218.46622346 -27.2578125 221.88476562 C-27.16001829 228.58978136 -27.08050639 235.29466501 -27 242 C-12.48 242 2.04 242 17 242 C17.28885269 232.30726757 17.28885269 232.30726757 17.56811523 222.61425781 C17.60622314 221.40608398 17.64433105 220.19791016 17.68359375 218.953125 C17.72025146 217.71723633 17.75690918 216.48134766 17.79467773 215.20800781 C17.95979819 212.62812342 18.2464387 210.45644894 19 208 C25.0546875 207.8046875 25.0546875 207.8046875 27 208 C29.86545595 210.86545595 29.31629628 212.96814756 29.4140625 216.9765625 C29.44311172 218.00443375 29.44311172 218.00443375 29.4727478 219.05307007 C29.53256831 221.24358644 29.57893756 223.4341553 29.625 225.625 C29.66317763 227.10939802 29.70222924 228.59377384 29.7421875 230.078125 C29.83827084 233.71854685 29.92229282 237.35913436 30 241 C36.08722746 241.04934154 42.1743392 241.08569167 48.26171875 241.10986328 C50.33367947 241.11993712 52.40562593 241.13359666 54.47753906 241.15087891 C57.45120764 241.17506664 60.4246887 241.18646908 63.3984375 241.1953125 C64.32868744 241.20563507 65.25893738 241.21595764 66.21737671 241.22659302 C67.50848862 241.22681961 67.50848862 241.22681961 68.82568359 241.22705078 C69.58513275 241.231492 70.34458191 241.23593323 71.12704468 241.24050903 C73.24502299 241.16250155 73.24502299 241.16250155 75 239 C75.19867212 236.17924741 75.27268925 233.45665907 75.25878906 230.63476562 C75.2622937 229.76961838 75.26579834 228.90447113 75.26940918 228.0131073 C75.27823507 225.14407402 75.27237433 222.27528593 75.265625 219.40625 C75.2669714 217.41849724 75.26891173 215.4307448 75.27142334 213.44299316 C75.27437577 209.27332428 75.27007315 205.10374098 75.26074219 200.93408203 C75.2493476 195.58035724 75.25590644 190.22683296 75.26788712 184.87311554 C75.27510251 180.76742025 75.27281926 176.66177276 75.26763153 172.55607605 C75.26629415 170.58163937 75.26794584 168.60719839 75.27259064 166.63276672 C75.27765061 163.87680509 75.26995313 161.12117148 75.25878906 158.36523438 C75.26486176 157.13240974 75.26486176 157.13240974 75.27105713 155.87467957 C75.41603377 151.46812348 75.41603377 151.46812348 73 148 C69.94712847 147.80054739 66.98451163 147.72819341 63.93028259 147.74171448 C62.97841098 147.73803877 62.02653937 147.73436307 61.04582316 147.73057598 C57.83510139 147.72054414 54.62455109 147.72475733 51.41381836 147.72875977 C49.11913874 147.72437508 46.82446072 147.71907388 44.52978516 147.71292114 C39.57359277 147.70138986 34.61744331 147.69595935 29.66123772 147.69503975 C21.80321745 147.69310037 13.94528558 147.6750484 6.08729553 147.65428162 C-4.95343343 147.6261964 -15.9941602 147.60350998 -27.03491211 147.58666992 C-28.08654252 147.5850609 -28.08654252 147.5850609 -29.15941798 147.58341938 C-36.95153249 147.571642 -44.74364779 147.56143478 -52.5357666 147.55297852 C-55.34602867 147.54990563 -58.15629072 147.54681661 -60.96655273 147.54370117 C-61.65981016 147.54293583 -62.35306759 147.54217049 -63.06733281 147.54138196 C-74.70102663 147.52821811 -86.33466516 147.50345505 -97.96831793 147.46995777 C-105.75561829 147.4483422 -113.54277575 147.44010881 -121.33010399 147.44235051 C-126.21736129 147.44066447 -131.10452827 147.42649713 -135.99175262 147.40913773 C-138.23076396 147.40361298 -140.46979463 147.40298233 -142.70880699 147.40807533 C-194.55128663 147.51347362 -251.77783138 135.43136513 -290 98 C-291.96283743 95.85090792 -293.86597988 93.67471135 -295.72265625 91.43359375 C-296.14417969 90.96050781 -296.56570313 90.48742187 -297 90 C-297.33 90 -297.66 90 -298 90 Z M13 90 C11.77933813 91.5738483 10.57434973 93.15985092 9.375 94.75 C-6.2171171 113.94409352 -30.86665804 126.40546873 -54 134 C-54 134.33 -54 134.66 -54 135 C-31.56 135 -9.12 135 14 135 C14 120.15 14 105.3 14 90 C13.67 90 13.34 90 13 90 Z " fill="#130162" transform="translate(368,169)"/>
<path d="M0 0 C1.25039062 -0.01160156 2.50078125 -0.02320313 3.7890625 -0.03515625 C17.06708152 0.00607983 32.5250108 1.6820377 42.8203125 11.02734375 C45.50406351 14.1634985 46.9186094 16.5285378 47.3125 20.625 C46.86413034 26.00543597 44.71197641 28.87301047 40.70703125 32.38671875 C37.9869319 34.38459836 35.4834437 35.70132406 32.375 37 C31.43398438 37.40476563 30.49296875 37.80953125 29.5234375 38.2265625 C19.93184588 41.35286842 10.40557709 41.76398433 0.375 41.75 C-0.28375122 41.74945618 -0.94250244 41.74891235 -1.62121582 41.74835205 C-17.91636956 41.68657931 -31.75131916 39.91556737 -44.625 29.1875 C-46.8479827 24.64048993 -46.79555919 20.32352415 -46 15.375 C-42.47892071 8.71009991 -35.77806015 6.10219133 -29 3.375 C-19.35210742 0.58720476 -9.9965536 -0.09275153 0 0 Z M-33 20.375 C-30.58981711 23.99027434 -29.30736474 24.21819572 -25.25 25.5 C-24.22390625 25.83257812 -23.1978125 26.16515625 -22.140625 26.5078125 C-6.98768322 30.69183374 14.4803158 31.12446583 29 24.375 C31.3340176 22.36139661 31.3340176 22.36139661 33 20.375 C24.44220661 12.56136256 11.15290911 13.17014307 0.375 13.125 C-0.83285156 13.104375 -2.04070312 13.08375 -3.28515625 13.0625 C-14.08299694 13.01600768 -23.86348394 14.35320532 -33 20.375 Z " fill="#130163" transform="translate(226,200.625)"/>
</svg>
