<?xml version="1.0" encoding="UTF-8"?>
<svg version="1.1" xmlns="http://www.w3.org/2000/svg" width="512" height="512">
<path d="M0 0 C0.87629059 0.00054382 1.75258118 0.00108765 2.65542603 0.00164795 C17.28132618 0.04322762 31.33979895 1.02472484 45.625 4.375 C46.51026367 4.57867188 47.39552734 4.78234375 48.30761719 4.9921875 C93.7501616 15.83015908 135.19703495 43.55781342 162.625 81.375 C163.2425415 82.21804687 163.2425415 82.21804687 163.87255859 83.078125 C185.7371629 113.28158632 200.5990215 152.27115018 200.828125 189.86328125 C200.83513931 190.64012772 200.84215363 191.41697418 200.84938049 192.21736145 C200.86676839 194.70746746 200.87323189 197.19733553 200.875 199.6875 C200.87567474 200.53914734 200.87634949 201.39079468 200.87704468 202.26824951 C200.86115842 214.88134309 200.40775742 227.02788343 197.625 239.375 C197.45871094 240.16326172 197.29242188 240.95152344 197.12109375 241.76367188 C193.69751585 257.80376834 188.40177035 273.34098884 181.48999023 288.21118164 C180.95260727 289.36920792 180.4152243 290.52723419 179.86155701 291.72035217 C179.45349319 292.59638596 179.04542938 293.47241974 178.625 294.375 C179.22484427 294.9720789 179.82468855 295.56915779 180.44270992 296.18432999 C195.07534948 310.75055539 209.69955608 325.32520062 224.31455898 339.90912247 C231.38262425 346.96175553 238.45345784 354.01156967 245.53100586 361.0546875 C251.7037917 367.19745897 257.87118639 373.34558493 264.03231484 379.50004935 C267.29112838 382.75497096 270.55247842 386.00725123 273.82031059 389.25312042 C276.90403558 392.31628965 279.9804342 395.3866385 283.05166054 398.46233749 C284.17242128 399.58228149 285.29570179 400.69971129 286.42185211 401.81423569 C296.75802184 412.04902195 305.91683228 422.30984348 310.625 436.375 C310.99238281 437.42494141 310.99238281 437.42494141 311.3671875 438.49609375 C315.83581553 454.19750594 312.26619957 470.93969485 304.69921875 484.94140625 C296.59154048 498.95840246 283.66667288 506.54730128 268.625 511.375 C254.18043041 515.1296315 237.62564609 512.34700694 224.625 505.5 C220.14424067 502.60285191 216.20125779 499.34777711 212.33178711 495.69287109 C211.69770652 495.09702398 211.06362593 494.50117687 210.41033077 493.88727379 C200.10080766 484.11796344 190.12361266 473.99973286 180.09381986 463.94521379 C177.08081131 460.92586925 174.06488905 457.90943768 171.04930115 454.89266968 C165.36351912 449.20380409 159.68028645 443.51239897 153.99801153 437.82003057 C147.51854149 431.32930594 141.03616406 424.84148818 134.55356514 418.35388875 C121.24085183 405.03077856 107.93171493 391.70410107 94.625 378.375 C93.97735687 378.66058273 93.32971375 378.94616547 92.66244507 379.24040222 C89.68013678 380.55309302 86.6955633 381.86055628 83.7109375 383.16796875 C82.69249756 383.61716675 81.67405762 384.06636475 80.62475586 384.5291748 C33.39821008 405.17780648 -21.99648504 406.43482659 -70.21679688 388.30664062 C-97.76611178 377.44455903 -121.01844182 361.75677752 -142.375 341.375 C-143.35533203 340.47394531 -143.35533203 340.47394531 -144.35546875 339.5546875 C-176.08178463 309.56163828 -197.30652237 260.47498327 -199.48143005 217.26026917 C-199.53749168 215.14701939 -199.56516955 213.03582273 -199.578125 210.921875 C-199.58518463 210.14789871 -199.59224426 209.37392242 -199.59951782 208.57649231 C-199.82948972 175.94968948 -199.82948972 175.94968948 -196.375 160.375 C-196.17632324 159.46331055 -195.97764648 158.55162109 -195.77294922 157.61230469 C-187.65600064 121.48428338 -170.36898959 88.6184317 -144.78710938 61.85449219 C-143.8506544 60.8733516 -142.91957769 59.88704753 -141.99414062 58.89550781 C-105.84202644 20.21937437 -52.308757 -0.12267271 0 0 Z M-117.1328125 69.3203125 C-119.06606313 71.09189757 -121.03789334 72.77282341 -123.0625 74.4375 C-126.92470602 77.74412186 -130.15213967 81.45124578 -133.375 85.375 C-133.7879834 85.87563965 -134.2009668 86.3762793 -134.62646484 86.89208984 C-155.98440674 112.93291262 -169.6968404 144.01276147 -174.375 177.375 C-174.47071289 178.05208008 -174.56642578 178.72916016 -174.66503906 179.42675781 C-180.25199161 223.54165554 -167.37687675 269.80945705 -140.4375 305.0625 C-136.00523183 310.74047677 -131.33650345 316.15402015 -126.375 321.375 C-125.65787842 322.13296875 -125.65787842 322.13296875 -124.92626953 322.90625 C-93.97523914 355.41020365 -50.0222721 375.27507138 -5.05078125 376.5625 C44.69244143 377.40833971 89.87146287 359.05219215 125.59985352 324.68603516 C157.5012938 293.29905811 176.40196562 248.61809734 176.81591797 203.85839844 C176.76262903 164.16575061 165.03632986 125.95913945 140.625 94.375 C139.9546875 93.48167969 139.284375 92.58835937 138.59375 91.66796875 C109.86090163 54.81256517 67.87208494 32.05253199 22 25.0625 C-28.38805076 19.73151599 -79.65936101 34.7202247 -117.1328125 69.3203125 Z M163.625 316.375 C161.99157474 318.41908002 160.39722974 320.48113285 158.8125 322.5625 C146.63162585 338.27684923 132.78560681 351.77030894 116.625 363.375 C121.82590055 369.66749879 127.51091092 375.41620411 133.27685547 381.18798828 C134.34867999 382.26444953 135.42030957 383.3411049 136.49176025 384.41793823 C139.38602688 387.32524223 142.28354959 390.22927862 145.18211126 393.1322999 C146.99611295 394.94924432 148.80953105 396.76676926 150.62277603 398.58446884 C156.30583207 404.28117242 161.99086735 409.97588966 167.67881477 415.66770947 C174.22775379 422.22113288 180.77009434 428.78105064 187.30679023 435.34668553 C192.37344143 440.43498249 197.44587121 445.51747161 202.52268898 450.5956248 C205.54909361 453.62307469 208.57304703 456.65287753 211.5909996 459.68875504 C214.42931638 462.54360426 217.27477424 465.39114077 220.12574005 468.23335648 C221.16672592 469.27357494 222.20518265 470.316332 223.24081039 471.36188507 C232.68564188 480.89185839 241.67054116 488.17276147 255.625 488.375 C264.69730465 487.48886792 273.30360893 484.14059693 279.625 477.375 C287.24311856 467.53341143 288.59293143 458.51044032 287.625 446.375 C284.74431019 434.8031381 274.73054231 426.19187495 266.58666992 418.09375 C265.4736994 416.97970477 264.36116241 415.8652263 263.24902344 414.75035095 C260.24776277 411.74427262 257.24033899 408.74443249 254.2315805 405.74586105 C251.08039041 402.60349023 247.93450943 399.45581238 244.78791809 396.30883789 C239.51151236 391.03336628 234.23126084 385.76176938 228.94848633 380.49267578 C222.83405839 374.39402365 216.72492394 368.29010954 210.61874503 362.18319893 C204.74253527 356.30638007 198.86348049 350.43241651 192.98281288 344.56005859 C190.47924774 342.06003074 187.97653978 339.55914935 185.47447777 337.05761719 C182.5359102 334.12005013 179.59482002 331.18503239 176.65171051 328.25201607 C175.56922933 327.17246773 174.48760506 326.09205942 173.40687752 325.01075554 C171.93848117 323.54187226 170.4670722 322.07607762 168.99479675 320.61108398 C168.1702106 319.78817368 167.34562445 318.96526337 166.49605083 318.11741638 C164.92915173 316.26141616 164.92915173 316.26141616 163.625 316.375 Z " fill="#000000" transform="translate(199.375,-0.375)"/>
<path d="M0 0 C4.62511241 3.35703523 7.39360049 6.79976307 10.25 11.75 C19.23566685 26.33623088 32.82643944 33.98660976 49.20703125 38.22265625 C62.05131274 40.85500642 74.82401404 41.2757385 87.90380859 40.75097656 C93.97636706 40.60313705 97.41079907 40.87195054 102 45 C109.05832063 56.34372959 107.40442412 73.97534905 107.375 86.875 C107.37445618 87.77496704 107.37391235 88.67493408 107.37335205 89.60217285 C107.33234686 104.40537393 106.41187698 118.53901215 103 133 C102.79632813 133.88381348 102.59265625 134.76762695 102.3828125 135.67822266 C97.69278103 155.34668025 89.96408448 174.97628287 79 192 C78.59700684 192.62777344 78.19401367 193.25554687 77.77880859 193.90234375 C61.21634909 219.46546289 40.29840023 239.70088135 14 255 C13.36852051 255.36851074 12.73704102 255.73702148 12.08642578 256.11669922 C-1.98211614 264.17008253 -1.98211614 264.17008253 -10 262 C-44.86061974 247.86331556 -73.61879891 219.2973331 -92 187 C-92.54285645 186.04770508 -92.54285645 186.04770508 -93.09667969 185.07617188 C-113.22954248 149.41028195 -120.3568169 109.24383551 -117.125 68.625 C-117.00741333 67.1093042 -117.00741333 67.1093042 -116.88745117 65.56298828 C-115.39785324 48.23909285 -115.39785324 48.23909285 -110 43 C-106.89317722 41.08836524 -104.64825384 40.77771274 -101.02734375 40.875 C-99.56856812 40.90074097 -99.56856812 40.90074097 -98.08032227 40.92700195 C-97.04319092 40.95109131 -96.00605957 40.97518066 -94.9375 41 C-70.22270857 41.2431937 -45.97381617 38.88073643 -27.03125 21.2421875 C-22.91757323 16.70132122 -19.89559393 11.405176 -16.92578125 6.0703125 C-13.0749455 -0.46148485 -7.05401679 -2.05207761 0 0 Z M-6 35 C-6.35449219 35.47308594 -6.70898438 35.94617188 -7.07421875 36.43359375 C-20.90425418 53.61230604 -44.52003341 62.2906962 -65.81298828 64.7734375 C-74.52665095 65.67612548 -83.26551223 66.33575603 -92 67 C-95.86059193 108.27801486 -88.25893901 152.1289656 -63 186 C-62.23042969 187.051875 -61.46085937 188.10375 -60.66796875 189.1875 C-52.02386269 200.82770176 -42.62596867 211.23817726 -31 220 C-30.44908691 220.41523926 -29.89817383 220.83047852 -29.33056641 221.25830078 C-18.35973843 229.9658902 -18.35973843 229.9658902 -6 236 C7.00735982 233.33411745 19.5170667 221.82152558 29 213 C29.60730957 212.43651855 30.21461914 211.87303711 30.84033203 211.29248047 C63.83373943 180.31959304 81.38433002 137.85051647 82.9453125 92.81640625 C83.74949481 79.5452166 83.74949481 79.5452166 81 67 C78.20336924 66.51538214 78.20336924 66.51538214 74.7890625 66.32421875 C73.49009033 66.22125488 72.19111816 66.11829102 70.8527832 66.01220703 C70.16221832 65.95985901 69.47165344 65.90751099 68.76016235 65.85357666 C55.78557669 64.84439071 43.36680753 63.23463633 31 59 C29.88109375 58.61972656 28.7621875 58.23945312 27.609375 57.84765625 C16.62878773 53.66658648 7.55487379 46.89080058 -0.94140625 38.8828125 C-3.05655742 36.85234952 -3.05655742 36.85234952 -6 35 Z " fill="#000000" transform="translate(205,69)"/>
<path d="M0 0 C3.40569591 2.14706916 5.80960782 4.10417103 7 8 C7.86750101 16.96417708 3.57763302 21.41410315 -1.875 28.25 C-2.85203133 29.48400395 -3.82856919 30.71839872 -4.8046875 31.953125 C-5.3212793 32.60603516 -5.83787109 33.25894531 -6.37011719 33.93164062 C-9.26576347 37.60628342 -12.13134353 41.30427634 -15 45 C-24.97171298 57.83565496 -24.97171298 57.83565496 -29.02294922 62.92895508 C-31.35350624 65.86470097 -33.61586422 68.83063999 -35.80859375 71.87109375 C-44.13483587 83.26444425 -44.13483587 83.26444425 -50.734375 85.03125 C-57.7359337 84.93467678 -61.73537015 81.99748183 -66.4375 77.3125 C-67.57743257 76.21802835 -68.71805461 75.12427435 -69.859375 74.03125 C-70.40142578 73.5053125 -70.94347656 72.979375 -71.50195312 72.4375 C-73.34616611 70.66782495 -75.25150376 68.98091953 -77.1875 67.3125 C-81.01815721 63.99797345 -84.77707091 60.60780768 -88.53125 57.20703125 C-91.43689997 54.60941695 -94.40719361 52.09443973 -97.40625 49.60546875 C-100.37929185 46.61056629 -100.96839179 44.32661819 -101.375 40.125 C-101.27061479 35.82111747 -99.76709117 33.32050941 -97 30 C-93.83989643 27.89326429 -92.84087475 27.68111943 -89.1875 27.625 C-88.35605469 27.59664062 -87.52460938 27.56828125 -86.66796875 27.5390625 C-80.50540496 28.60375141 -76.01294495 33.64595607 -71.625 37.8125 C-70.48367809 38.87955391 -69.34175249 39.94596249 -68.19921875 41.01171875 C-67.65185059 41.52395996 -67.10448242 42.03620117 -66.54052734 42.56396484 C-64.52670772 44.44118941 -62.49283052 46.29332646 -60.4375 48.125 C-59.85871094 48.64320313 -59.27992188 49.16140625 -58.68359375 49.6953125 C-56.88222846 51.09126612 -55.06666404 52.05032943 -53 53 C-52.72325439 52.4131543 -52.44650879 51.82630859 -52.16137695 51.22167969 C-51.057668 49.11031717 -49.86402463 47.3412822 -48.41796875 45.453125 C-47.90468018 44.78120117 -47.3913916 44.10927734 -46.86254883 43.41699219 C-46.30978271 42.70188477 -45.7570166 41.98677734 -45.1875 41.25 C-44.61217529 40.50137695 -44.03685059 39.75275391 -43.4440918 38.98144531 C-38.95298231 33.16590123 -34.34918686 27.44828335 -29.68652344 21.76977539 C-25.35040031 16.47793263 -21.20473021 11.06268124 -17.12109375 5.57421875 C-12.21860678 -0.37557667 -7.55859027 -1.91917331 0 0 Z " fill="#000000" transform="translate(247,158)"/>
</svg>
